# xmcd CD database file
#
# Track frame offsets:
#	150
#	20662
#	33271
#	54787
#	66062
#
# Disc length: 1148 seconds
#
# Revision: 2
# Processed by: cddbd v1.4PL0 Copyright (c) Steve Scherf et al.
# Submitted via: CDex 1.40Release
#
DISCID=35047a05
DTITLE=Morning Glory - The Whole World Is Watching
DYEAR=2003
DGENRE=Punk
TTITLE0=The Whole World Is Watching
TTITLE1=School Is Bullshit
TTITLE2=Tolerate!
TTITLE3=Beyond A. D.
TTITLE4=Gimme Heroin
EXTD=YEAR: 2003 ID3G: 43
EXTT0=
EXTT1=
EXTT2=
EXTT3=
EXTT4=
PLAYORDER=
